<svg xmlns="http://www.w3.org/2000/svg" width="22" height="21.091" viewBox="0 0 22 21.091">
  <g id="Icon_feather-shopping-cart" data-name="Icon feather-shopping-cart" transform="translate(-0.5 -0.5)">
    <path id="Path_17" data-name="Path 17" d="M13.818,30.909A.909.909,0,1,1,12.909,30,.909.909,0,0,1,13.818,30.909Z" transform="translate(-4.136 -11.227)" fill="none" stroke="#b2b2b2" stroke-linecap="round" stroke-linejoin="round" stroke-width="2"/>
    <path id="Path_18" data-name="Path 18" d="M30.318,30.909A.909.909,0,1,1,29.409,30,.909.909,0,0,1,30.318,30.909Z" transform="translate(-10.636 -11.227)" fill="none" stroke="#b2b2b2" stroke-linecap="round" stroke-linejoin="round" stroke-width="2"/>
    <path id="Path_19" data-name="Path 19" d="M1.5,1.5H5.136L7.573,13.673a1.818,1.818,0,0,0,1.818,1.464h8.836a1.818,1.818,0,0,0,1.818-1.464L21.5,6.045H6.045" fill="none" stroke="#b2b2b2" stroke-linecap="round" stroke-linejoin="round" stroke-width="2"/>
  </g>
</svg>
