<svg id="Group_97" data-name="Group 97" xmlns="http://www.w3.org/2000/svg" width="25" height="25" viewBox="0 0 25 25">
  <path id="Path_7" data-name="Path 7" d="M21.708,20.349,18.54,17.181l3.168-3.168a.961.961,0,0,0-1.359-1.359l-3.168,3.168-3.168-3.168a.961.961,0,1,0-1.359,1.359l3.168,3.168-3.168,3.168a.929.929,0,0,0,0,1.359.954.954,0,0,0,1.359,0l3.168-3.168,3.168,3.168a.965.965,0,0,0,1.359,0A.954.954,0,0,0,21.708,20.349Z" transform="translate(-4.682 -4.681)" fill="#e6007e"/>
  <path id="Path_8" data-name="Path 8" d="M15.875,5.058a10.813,10.813,0,1,1-7.65,3.167,10.746,10.746,0,0,1,7.65-3.167m0-1.683a12.5,12.5,0,1,0,12.5,12.5,12.5,12.5,0,0,0-12.5-12.5Z" transform="translate(-3.375 -3.375)" fill="#e6007e"/>
</svg>
