<svg xmlns="http://www.w3.org/2000/svg" width="15" height="15" viewBox="0 0 15 15">
  <path id="_" data-name="" d="M7.5,15a7.45,7.45,0,0,1-6.48-3.7A7.54,7.54,0,0,1,0,7.509,7.315,7.315,0,0,1,1.02,3.72,7.446,7.446,0,0,1,3.711,1.029,7.6,7.6,0,0,1,7.5,0V.017a7.453,7.453,0,0,1,6.48,3.7A7.309,7.309,0,0,1,15,7.509,7.533,7.533,0,0,1,13.98,11.3,7.45,7.45,0,0,1,7.5,15ZM9.634,5.452c.04,0,.061.023.061.069l-.1.154L6.026,8.9v.034l1.166.925,1.92,1.457a.616.616,0,0,0,.256.061.459.459,0,0,0,.156-.027.47.47,0,0,0,.223-.155,1.126,1.126,0,0,1,.069-.12L11.152,4.32c0-.136-.052-.217-.155-.24a.4.4,0,0,0-.107-.013.776.776,0,0,0-.2.031l-.155.051L2.923,7.131a.684.684,0,0,0-.18.129.2.2,0,0,0-.06.18.342.342,0,0,0,.171.24l.154.086L4.894,8.4,9.437,5.52l.12-.051A.226.226,0,0,1,9.634,5.452Z" transform="translate(0)" fill="#e6007e"/>
</svg>
