<svg xmlns="http://www.w3.org/2000/svg" width="24.345" height="26.74" viewBox="0 0 24.345 26.74">
  <g id="Group_50" data-name="Group 50" transform="translate(35 -4488.06)">
    <path id="Path_15" data-name="Path 15" d="M324.137,77.849H317.45V52.867h10.507a12.953,12.953,0,0,1,5.2,1.011,8.412,8.412,0,0,1,3.711,3.049,8.622,8.622,0,0,1,1.377,4.941,7.84,7.84,0,0,1-1.469,4.831A8.762,8.762,0,0,1,332.9,69.62a14.05,14.05,0,0,1-5.235.956h-3.527Zm3.6-19.728h-3.6v7.2h3.674a3.432,3.432,0,0,0,2.535-.992,3.341,3.341,0,0,0,.992-2.461,3.8,3.8,0,0,0-.974-2.719A3.445,3.445,0,0,0,327.737,58.121Z" transform="translate(-352.45 4435.193)"/>
    <path id="Path_16" data-name="Path 16" d="M361.686,55.677a3.639,3.639,0,0,1-3.6-3.6,3.564,3.564,0,0,1,1.066-2.59,3.435,3.435,0,0,1,2.534-1.084,3.7,3.7,0,0,1,3.674,3.674,3.435,3.435,0,0,1-1.083,2.535A3.566,3.566,0,0,1,361.686,55.677Z" transform="translate(-376.015 4459.123)" fill="#d6006b"/>
  </g>
</svg>
