<svg xmlns="http://www.w3.org/2000/svg" width="75.129" height="37.582" viewBox="0 0 75.129 37.582">
  <g id="Group_93" data-name="Group 93" transform="translate(-375 -159.025)">
    <g id="Group_49" data-name="Group 49" transform="translate(375 160.605)">
      <path id="Path_9" data-name="Path 9" d="M324.137,77.849H317.45V52.867h10.507a12.953,12.953,0,0,1,5.2,1.011,8.412,8.412,0,0,1,3.711,3.049,8.622,8.622,0,0,1,1.377,4.941,7.84,7.84,0,0,1-1.469,4.831A8.762,8.762,0,0,1,332.9,69.62a14.05,14.05,0,0,1-5.235.956h-3.527Zm3.6-19.728h-3.6v7.2h3.674a3.432,3.432,0,0,0,2.535-.992,3.341,3.341,0,0,0,.992-2.461,3.8,3.8,0,0,0-.974-2.719A3.445,3.445,0,0,0,327.737,58.121Z" transform="translate(-317.45 -51.912)"/>
      <path id="Path_10" data-name="Path 10" d="M358.6,83.3V65.485h6.686V83.3Z" transform="translate(-335.239 -57.366)"/>
      <path id="Path_11" data-name="Path 11" d="M383.538,82.856h-6.686V65.038h3.968l1.176,1.837a13.928,13.928,0,0,1,7.274-2.425,6.027,6.027,0,0,1,4.849,1.892,7.456,7.456,0,0,1,1.616,5.014v11.5h-6.686V71.981a2.523,2.523,0,0,0-.441-1.524,1.7,1.7,0,0,0-1.469-.606,6.365,6.365,0,0,0-1.653.312,14.446,14.446,0,0,0-1.947.716Z" transform="translate(-343.126 -56.919)"/>
      <path id="Path_12" data-name="Path 12" d="M416.97,77.122V51.589l6.686-.4V64.411l6.65-5.621,4,4.593-4.739,3.564L435.6,77.122h-7.2l-3.527-6.65-1.213.919v5.731Z" transform="translate(-360.467 -51.185)"/>
    </g>
    <path id="Path_9-2" data-name="Path 9" d="M361.686,55.677a3.639,3.639,0,0,1-3.6-3.6,3.564,3.564,0,0,1,1.066-2.59,3.435,3.435,0,0,1,2.534-1.084,3.7,3.7,0,0,1,3.674,3.674,3.435,3.435,0,0,1-1.083,2.535A3.566,3.566,0,0,1,361.686,55.677Z" transform="translate(39.985 110.623)" fill="#d6006b"/>
    <path id="Path_10-2" data-name="Path 10" d="M400.9,109.058a3.639,3.639,0,0,1-3.6-3.6,3.565,3.565,0,0,1,1.066-2.59,3.436,3.436,0,0,1,2.535-1.084,3.7,3.7,0,0,1,3.673,3.674,3.435,3.435,0,0,1-1.083,2.535A3.564,3.564,0,0,1,400.9,109.058Z" transform="translate(23.036 87.549)" fill="#d6006b"/>
  </g>
</svg>
